<?xml version="1.0" standalone="no"?>
<!DOCTYPE svg PUBLIC "-//W3C//DTD SVG 20010904//EN"
 "http://www.w3.org/TR/2001/REC-SVG-20010904/DTD/svg10.dtd">
<svg version="1.0" xmlns="http://www.w3.org/2000/svg"
 width="392.000000pt" height="61.000000pt" viewBox="0 0 392.000000 61.000000"
 preserveAspectRatio="xMidYMid meet">

<g transform="translate(0.000000,61.000000) scale(0.100000,-0.100000)"
fill="#000000" stroke="none">
<path d="M2392 564 c-120 -60 -186 -215 -148 -349 41 -140 130 -215 256 -215
74 0 120 22 177 82 108 118 109 300 3 421 -79 89 -186 112 -288 61z m194 -9
c13 -8 30 -28 39 -44 36 -71 44 -289 14 -389 -6 -23 -27 -55 -45 -73 -46 -45
-122 -52 -174 -17 -61 41 -75 83 -78 244 -5 191 15 256 92 290 37 17 118 11
152 -11z"/>
<path d="M2982 564 c-120 -60 -186 -215 -148 -349 41 -140 130 -215 256 -215
74 0 120 22 177 82 108 118 109 300 3 421 -79 89 -186 112 -288 61z m194 -9
c13 -8 30 -28 39 -44 36 -71 44 -289 14 -389 -6 -23 -27 -55 -45 -73 -46 -45
-122 -52 -174 -17 -61 41 -75 83 -78 244 -5 191 15 256 92 290 37 17 118 11
152 -11z"/>
<path d="M33 573 l37 -4 -2 -272 -3 -272 -35 -6 c-22 -4 -5 -6 45 -6 44 0 63
2 43 4 l-38 4 0 261 c0 144 2 259 4 257 3 -2 45 -121 95 -263 50 -142 93 -261
96 -264 6 -6 12 9 110 293 l84 240 0 -262 1 -262 -32 -4 c-18 -2 17 -4 77 -4
61 0 95 2 78 4 l-33 4 0 274 0 274 33 4 c17 2 -4 5 -48 5 l-80 2 -64 -187
c-96 -281 -80 -267 -136 -111 -26 73 -61 170 -77 216 l-30 82 -81 -2 c-45 -1
-65 -3 -44 -5z"/>
<path d="M723 573 l37 -4 0 -274 0 -274 -37 -4 c-21 -2 16 -4 82 -4 66 0 102
3 80 6 l-40 6 -3 272 -2 272 42 4 c24 2 -11 4 -77 4 -66 0 -103 -2 -82 -4z"/>
<path d="M1013 573 l37 -4 0 -274 0 -274 -37 -4 c-21 -2 0 -4 47 -4 47 0 68 2
48 4 l-38 4 0 257 c0 163 4 251 10 242 5 -8 78 -127 162 -265 90 -147 159
-250 168 -250 13 0 15 40 18 282 l2 282 38 4 c20 2 -1 4 -48 4 -47 0 -68 -2
-47 -4 l37 -4 0 -206 c0 -114 -2 -204 -4 -202 -2 2 -61 97 -130 212 l-127 207
-87 -2 c-48 -1 -70 -3 -49 -5z"/>
<path d="M1573 573 l37 -4 0 -274 0 -274 -37 -4 c-21 -2 -2 -4 42 -4 44 0 65
2 48 4 l-33 4 0 257 1 257 28 -75 c15 -41 56 -159 92 -262 35 -103 67 -188 70
-188 4 0 33 75 65 168 32 92 75 214 95 272 l38 105 0 -267 1 -267 -37 -4 c-21
-2 14 -4 77 -4 63 0 98 2 78 4 l-38 4 0 274 0 274 38 4 c20 2 -1 4 -47 3 l-83
-1 -72 -207 c-39 -115 -74 -208 -77 -208 -3 0 -39 94 -80 210 l-74 210 -85 -2
c-47 -1 -68 -3 -47 -5z"/>
<path d="M3433 573 l37 -4 0 -274 0 -274 -37 -4 c-21 -2 0 -4 47 -4 47 0 68 2
48 4 l-38 4 0 256 c0 141 3 253 7 250 4 -4 77 -123 164 -265 86 -141 164 -258
173 -260 14 -3 16 24 16 282 l0 285 38 4 c20 2 -1 4 -48 4 -47 0 -68 -2 -47
-4 l37 -4 0 -201 c0 -111 -3 -198 -7 -194 -5 4 -62 96 -128 204 l-120 197 -90
1 c-50 1 -73 -1 -52 -3z"/>
</g>
</svg>
