<?xml version="1.0" standalone="no"?>
<!DOCTYPE svg PUBLIC "-//W3C//DTD SVG 20010904//EN"
 "http://www.w3.org/TR/2001/REC-SVG-20010904/DTD/svg10.dtd">
<svg version="1.0" xmlns="http://www.w3.org/2000/svg"
 width="500.000000pt" height="500.000000pt" viewBox="0 0 500.000000 500.000000"
 preserveAspectRatio="xMidYMid meet">

<g transform="translate(0.000000,500.000000) scale(0.100000,-0.100000)"
fill="#000000" stroke="none">
<path d="M0 2500 l0 -2500 2500 0 2500 0 0 2500 0 2500 -2500 0 -2500 0 0
-2500z m2715 2221 l40 -7 -65 -8 c-172 -22 -432 -109 -619 -208 -186 -98 -327
-201 -480 -351 -314 -308 -509 -687 -588 -1142 -24 -139 -24 -480 0 -620 38
-220 100 -410 194 -599 305 -609 890 -1022 1573 -1112 165 -21 437 -15 597 15
295 55 597 181 824 343 43 32 75 50 70 40 -16 -28 -231 -237 -306 -297 -337
-268 -774 -447 -1207 -494 -125 -14 -371 -14 -496 0 -432 47 -869 225 -1207
494 -309 245 -573 613 -704 982 -109 304 -152 641 -122 946 43 437 215 853
491 1192 73 89 244 258 335 331 328 261 730 430 1165 488 113 15 439 20 505 7z
m-935 -1991 c31 -102 59 -192 62 -200 3 -8 17 26 32 75 15 50 43 141 62 203
l35 112 194 0 195 0 0 -375 0 -375 -135 0 -135 0 -2 203 -3 202 -37 -115 c-20
-63 -49 -154 -63 -202 l-27 -88 -112 0 -112 0 -62 198 -61 197 0 -197 -1 -198
-140 0 -140 0 0 375 0 375 197 -2 197 -3 56 -185z m2048 23 l92 -168 0 168 0
168 138 -3 137 -3 3 -372 2 -373 -157 0 -158 0 -85 158 -85 157 -3 -157 -3
-158 -139 0 -140 0 0 375 0 375 153 0 153 0 92 -167z m-1099 -121 c45 -22 71
-59 78 -109 16 -122 -99 -208 -209 -154 -54 26 -82 70 -82 131 0 59 28 105 79
130 49 25 89 25 134 2z m470 0 c45 -22 71 -59 78 -109 16 -122 -99 -208 -209
-154 -54 26 -82 70 -82 131 0 59 28 105 79 130 49 25 89 25 134 2z"/>
</g>
</svg>
